/* XPM */
static char * lab4_xpm[] = {
"128 128 12 1",
" 	c #000000",
".	c #5B6567",
"+	c #495254",
"@	c #1A1A18",
"#	c #809EA5",
"$	c #49383D",
"%	c #342C28",
"&	c #6D8084",
"*	c #BD971B",
"=	c #242423",
"-	c #353734",
";	c #3D241E",
"                                                                                                                                ",
"                                                                                                                                ",
"..........................++..++..++..++++++@@  ............++..++..++..++++++++    ++++..++..++......................++..++....",
"..........................++..++..++..++++++@@  ............++..++..++..++++++++    ++++..++..++......................++..++....",
"++++++++++++++++++++++++++++++++++++++++++++@@  ..++++++++++++++++++++++++++++++    ++++++++++++++++++++++++++++++++++++++++++++",
"++++++++++++++++++++++++++++++++++++++++++++@@  ..++++++++++++++++++++++++++++++    ++++++++++++++++++++++++++++++++++++++++++++",
"++++++++++++++++++++++++++++++++++++++++++++@@  ..++##++++++++++++++++++++##++++    ++++++++++++++++++++++++++++++++++++++++++++",
"++++++++++++++++++++++++++++++++++++++++++++@@  ..++##++++++++++++++++++++##++++    ++++++++++++++++++++++++++++++++++++++++++++",
"++++++++++++++++++++++++++++++++$$##..++++++@@  ..$$++++++++++++++++++++$$++++++    ++++$$##..++++++++++++++++++++++++++++++++++",
"++++++++++++++++++++++++++++++++$$##..++++++@@  ..$$++++++++++++++++++++$$++++++    ++++$$##..++++++++++++++++++++++++++++++++++",
"++++++++++++++++++++++++++++++++$$....++++++@@  ..++++++++++++++++++++++++++++++  @@++++$$....++++++++++++++++++++++++++++++++++",
"++++++++++++++++++++++++++++++++$$....++++++@@  ..++++++++++++++++++++++++++++++  @@++++$$....++++++++++++++++++++++++++++++++++",
"++++++++++++++++++++++++++++++++$$$$++++++++@@  ..++++++++++++++++++++++++++++++@@  ++++$$$$++++++++++++++++++++++++++++++++++++",
"++++++++++++++++++++++++++++++++$$$$++++++++@@  ..++++++++++++++++++++++++++++++@@  ++++$$$$++++++++++++++++++++++++++++++++++++",
"++++++++++++++++++++++++++++++++++++++++++++@@  ..++++++++++++++++++++++++++++++  @@++++++++++++++++++++++++++++++++++++++++++++",
"++++++++++++++++++++++++++++++++++++++++++++@@  ..++++++++++++++++++++++++++++++  @@++++++++++++++++++++++++++++++++++++++++++++",
"............................................%%@@..++++++++++++++++++++++++++++++@@  ............................................",
"............................................%%@@..++++++++++++++++++++++++++++++@@  ............................................",
"++++++++++++++++++++++++++++++++++++++++++++@@  ..++++++++++++++++++++++++++++++  @@++++++++++++++++++++++++++++++++++++++++++++",
"++++++++++++++++++++++++++++++++++++++++++++@@  ..++++++++++++++++++++++++++++++  @@++++++++++++++++++++++++++++++++++++++++++++",
"............................................%%@@##..............................@@  ............................................",
"............................................%%@@##..............................@@  ............................................",
"............................................@@  ..++++++++++++++++++++++++++++++  %%............................................",
"............................................@@  ..++++++++++++++++++++++++++++++  %%............................................",
"............................................%%@@##..............................%%@@............................................",
"............................................%%@@##..............................%%@@............................................",
"............................................%%@@##..............................@@%%............................................",
"............................................%%@@##..............................@@%%............................................",
"............................................%%@@##..............................%%@@............................................",
"............................................%%@@##..............................%%@@............................................",
"............................................%%@@##..............................@@%%............................................",
"............................................%%@@##..............................@@%%............................................",
"............................................%%@@##..............................%%@@............................................",
"............................................%%@@##..............................%%@@............................................",
"............................................@@@@##..............................@@%%............................................",
"............................................@@@@##..............................@@%%............................................",
"............................................%%@@##..............................%%%%............................................",
"............................................%%@@##..............................%%%%............................................",
"............................................@@@@&&..............................@@%%............................................",
"............................................@@@@&&..............................@@%%............................................",
"............................................%%@@##..............................%%%%............................................",
"............................................%%@@##..............................%%%%............................................",
"............................................@@@@&&..............................@@%%............................................",
"............................................@@@@&&..............................@@%%............................................",
"............................................%%@@##..............................%%%%............................................",
"............................................%%@@##..............................%%%%............................................",
"............................................@@@@&&..............................@@%%............................................",
"............................................@@@@&&..............................@@%%............................................",
"............................................@@@@&&..............................@@%%............................................",
"............................................@@@@&&..............................@@%%............................................",
"............................................@@@@&&..............................@@%%............................................",
"............................................@@@@&&..............................@@%%............................................",
"............................................@@@@&&..............................@@%%............................................",
"............................................@@@@&&..............................@@%%............................................",
"............................................@@@@&&..............................%%%%............................................",
"............................................@@@@&&..............................%%%%............................................",
"******************************************..@@@@................................@@%%..******************************************",
"******************************************..@@@@................................@@%%..******************************************",
"******************************************..@@@@&&..............................%%%%..******************************************",
"******************************************..@@@@&&..............................%%%%..******************************************",
"******************************************..@@@@..****************************..@@%%..******************************************",
"******************************************..@@@@..****************************..@@%%..******************************************",
"******************************************..@@%%&&****************************..%%%%..******************************************",
"******************************************..@@%%&&****************************..%%%%..******************************************",
"............................................%%@@..****************************..%%%%............................................",
"............................................%%@@..****************************..%%%%............................................",
"................................$$##++......@@%%..****************************..%%%%....$$##++..................................",
"................................$$##++......@@%%..****************************..%%%%....$$##++..................................",
"................................$$++++......%%@@................................%%%%....$$++++..................................",
"................................$$++++......%%@@................................%%%%....$$++++..................................",
"................................$$$$........@@%%................................%%%%....$$$$....................................",
"................................$$$$........@@%%................................%%%%....$$$$....................................",
"............................................%%%%....##....................##....%%%%............................................",
"............................................%%%%....##....................##....%%%%............................................",
"######################################..##..%%%%..$$....................$$......%%%%..##..############..##..##..##..############",
"######################################..##..%%%%..$$....................$$......%%%%..##..############..##..##..##..############",
"                                              %%................................%%                                              ",
"                                              %%................................%%                                              ",
"                                                ....####################..##....                                                ",
"                                                ....####################..##....                                                ",
"==@@  @@==@@@@@@==@@  @@==@@@@@@==@@  @@==@@                                          @@==@@@@@@==@@  @@==@@@@@@==@@  @@==@@@@@@",
"==@@  @@==@@@@@@==@@  @@==@@@@@@==@@  @@==@@                                          @@==@@@@@@==@@  @@==@@@@@@==@@  @@==@@@@@@",
"--@@  ----==@@----@@  ----==@@----@@  ----==@@                                    @@  ----==@@----@@  ----==@@----@@  ----==@@--",
"--@@  ----==@@----@@  ----==@@----@@  ----==@@                                    @@  ----==@@----@@  ----==@@----@@  ----==@@--",
"--@@  ----====----@@  ----====----@@  ----====--@@@@  @@==@@@@@@==@@  @@==@@@@@@==@@  ----====----@@  ----====----@@  ----====--",
"--@@  ----====----@@  ----====----@@  ----====--@@@@  @@==@@@@@@==@@  @@==@@@@@@==@@  ----====----@@  ----====----@@  ----====--",
"--@@  ----====----@@  ----====----@@  ----====----@@  ----====----@@  ----====----@@  ----====----@@  ----====----@@  ----====--",
"--@@  ----====----@@  ----====----@@  ----====----@@  ----====----@@  ----====----@@  ----====----@@  ----====----@@  ----====--",
"--==@@----====----==@@----====----==@@----====----==@@----====----==@@----====----==@@----====----==@@----====----==@@----====--",
"--==@@----====----==@@----====----==@@----====----==@@----====----==@@----====----==@@----====----==@@----====----==@@----====--",
"--@@  ----====----@@  ----====----@@  ----====----@@  ----====----@@  ----====----@@  ----====----@@  ----====----@@  ----====--",
"--@@  ----====----@@  ----====----@@  ----====----@@  ----====----@@  ----====----@@  ----====----@@  ----====----@@  ----====--",
"--==@@----====----==@@----====----==@@----====----==@@----====----==@@----====----==@@----====----==@@----====----==@@----====--",
"--==@@----====----==@@----====----==@@----====----==@@----====----==@@----====----==@@----====----==@@----====----==@@----====--",
"--==  ----====----==  ----====----==  ----====----==  ----====----==  ----====----==  ----====----==  ----====----==  ----====--",
"--==  ----====----==  ----====----==  ----====----==  ----====----==  ----====----==  ----====----==  ----====----==  ----====--",
"--==@@----====----==@@----====----==@@----====----==@@----====----==@@----====----==@@----====----==@@----====----==@@----====--",
"--==@@----====----==@@----====----==@@----====----==@@----====----==@@----====----==@@----====----==@@----====----==@@----====--",
"--==@@----====----==@@----====----==@@----====----==@@----====----==@@----====----==@@----====----==@@----====----==@@----====--",
"--==@@----====----==@@----====----==@@----====----==@@----====----==@@----====----==@@----====----==@@----====----==@@----====--",
"--@@@@----====----@@@@--======----@@@@----====----@@@@--======----@@@@----====----@@@@--======----@@@@----====----@@@@--======--",
"--@@@@----====----@@@@--======----@@@@----====----@@@@--======----@@@@----====----@@@@--======----@@@@----====----@@@@--======--",
"--==@@----====----==@@----====----==@@----====----==@@----====----==@@----====----==@@----====----==@@----====----==@@----====--",
"--==@@----====----==@@----====----==@@----====----==@@----====----==@@----====----==@@----====----==@@----====----==@@----====--",
"==@@  --======--==@@  --======--==@@  --======--==@@  --======--==@@  --======--==@@  --======--==@@  --======--==@@  --======--",
"==@@  --======--==@@  --======--==@@  --======--==@@  --======--==@@  --======--==@@  --======--==@@  --======--==@@  --======--",
"--@@@@==--====----@@@@==--====----@@@@==--====----@@@@==--====----@@@@==--====----@@@@==--====----@@@@==--====----@@@@==--====--",
"--@@@@==--====----@@@@==--====----@@@@==--====----@@@@==--====----@@@@==--====----@@@@==--====----@@@@==--====----@@@@==--====--",
"==@@  --====@@--==@@  --====@@--==@@  --====@@--==@@  --====@@--==@@  --====@@--==@@  --====@@--==@@  --====@@--==@@  --====@@--",
"==@@  --====@@--==@@  --====@@--==@@  --====@@--==@@  --====@@--==@@  --====@@--==@@  --====@@--==@@  --====@@--==@@  --====@@--",
"==    ====@@  ====    ====@@  ====    ====@@  ====    ====@@  ====    ====@@  ====    ====@@  ====    ====@@  ====    ====@@  ==",
"==    ====@@  ====    ====@@  ====    ====@@  ====    ====@@  ====    ====@@  ====    ====@@  ====    ====@@  ====    ====@@  ==",
"##################&&########&&##&&##&&##&&##&&&&&&&&&&&&##&&##&&##&&##############################################&&########&&##",
"##################&&########&&##&&##&&##&&##&&&&&&&&&&&&##&&##&&##&&##############################################&&########&&##",
"................++................................++..........................++..++............++..++..........++..............",
"................++................................++..........................++..++............++..++..........++..............",
"..++..........++..............................++++..............................++................++..........++................",
"..++..........++..............................++++..............................++................++..........++................",
"++....##++............##++............##++....++......##++............##++....++......##++......++....##++............##++......",
"++....##++............##++............##++....++......##++............##++....++......##++......++....##++............##++......",
"....$$++++..........$$++++..........$$++++..++..++..$$++++..........$$++++..........$$++++....++....$$++++..........$$++++....++",
"....$$++++..........$$++++..........$$++++..++..++..$$++++..........$$++++..........$$++++....++....$$++++..........$$++++....++",
"++..$$$$............$$$$............$$$$......++....$$$$............$$$$............$$$$....++++....$$$$............$$$$....++..",
"++..$$$$............$$$$............$$$$......++....$$$$............$$$$............$$$$....++++....$$$$............$$$$....++..",
"............................................++..........................++..................++............................++..++",
"............................................++..........................++..................++............................++..++",
"$$;;;;;;;;;;;;$$;;$$;;$$$$$$$$$$$$$$;;$$;;$$@@$$@@$$@@@@@@@@$$@@$$$$$$$$$$$$$$$$;;$$;;$$$$;;$$;;$$;;;;;;;;;;;;$$;;$$;;$$$$$$$$$$",
"$$;;;;;;;;;;;;$$;;$$;;$$$$$$$$$$$$$$;;$$;;$$@@$$@@$$@@@@@@@@$$@@$$$$$$$$$$$$$$$$;;$$;;$$$$;;$$;;$$;;;;;;;;;;;;$$;;$$;;$$$$$$$$$$"};
