/* XPM */
static char *f54b9886b1484ab9883826b69f3ea4c39qicuBVQfbJtaYKj[] = {
/* columns rows colors chars-per-pixel */
"16 16 33 1 ",
"  c #E8A16E",
". c #E49F6D",
"X c #D2966A",
"o c #CF956A",
"O c #D7742C",
"+ c #D8752C",
"@ c #BF6828",
"# c #4B2C16",
"$ c #372313",
"% c #B75D1B",
"& c #B85D1B",
"* c #9F5118",
"= c #291506",
"- c #B85E1B",
"; c #160B03",
": c #331A08",
"> c #2F1807",
", c #1F1005",
"< c #301807",
"1 c #1D0F04",
"2 c #B75D1C",
"3 c #B85E1C",
"4 c #2B1607",
"5 c #B95E1C",
"6 c #D56D20",
"7 c #D76E21",
"8 c #BA5F1C",
"9 c #180C04",
"0 c #A05118",
"q c #2C1707",
"w c #190D04",
"e c #070401",
"r c white",
/* pixels */
"      .X.     .o",
"OOOOO+@#@+OOO+@$",
"%%%&%&*=*-%%&-*;",
"::>,>:>,>::>,<<1",
"23*4*323223*4*53",
"678:87666678:876",
"23*4*323223*4*53",
"::>,>:>,>::>,<<1",
"222323*4*32235*9",
"6666678:87666781",
"222323*4*32235*9",
"::>,>:>,>::>,<<1",
"23*4*323223*4*53",
"678:87666678:876",
"250q05222250q052",
"11wew111111wew11"
};
