/* XPM */
static char *ground[] = {
/* columns rows colors chars-per-pixel */
"16 16 21 1 ",
"  c #030000",
". c #040000",
"X c #0A0000",
"o c #0E0000",
"O c #0A0006",
"+ c #100000",
"@ c #1D0000",
"# c #220000",
"$ c #DF5912",
"% c #D95B1A",
"& c #DC591C",
"* c #E25712",
"= c #E45712",
"- c #E65315",
"; c #E25714",
": c #E15812",
"> c #E8D2B3",
", c #E9D3B4",
"< c #DFD2C2",
"1 c #E1CFC1",
"2 c #E1D9C2",
/* pixels */
"*,>>,,>>> *>>>>*",
">********X>;*** ",
">********X>$*** ",
">********X>**** ",
">********X2.*$$.",
">********X*X...=",
">********X>>>>>.",
">********X>-*** ",
">********X>-*** ",
">********X>-*** ",
">+******@>***** ",
">>  ****#>*;*** ",
">:>>+++@1*$**** ",
">%::>>>@>&***** ",
">**:$==@<&****o ",
"=      =1O     *"
};
