/* XPM */
static char *powerup[] = {
/* columns rows colors chars-per-pixel */
"16 16 3 1 ",
"  c black",
". c #FF9800",
"X c #FFEB3B",
/* pixels */
" .............. ",
".XXXXXXXXXXXXXX ",
".X XXXXXXXXX XX ",
".XXXX.....XXXXX ",
".XXX..   ..XXXX ",
".XXX.. XX.. XXX ",
".XXX.. XX.. XXX ",
".XXXX  X... XXX ",
".XXXXXX..   XXX ",
".XXXXXXX  XXXXX ",
".XXXXXX..XXXXXX ",
".XXXXXX.. XXXXX ",
".XXXXXXX  XXXXX ",
".X XXXXXXXXX XX ",
".XXXXXXXXXXXXXX ",
"                "
};
