/* XPM */
static char *result[] = {
/* columns rows colors chars-per-pixel */
"64 64 3 1 ",
"  c #323C39",
". c #FBF236",
"X c white",
/* pixels */
"XXXXXXXXXXXXXXXXXXXXXXXXXXXXXXXXXXXXXXXXXXXXXXXXXXXXXXXXXXXXXXXX",
"X                                                              X",
"X                                                              X",
"X                                                              X",
"X                                                              X",
"X              ............................                    X",
"X            .....................................             X",
"X          .........................................           X",
"X          .........................................           X",
"X         ...........................................          X",
"X         ...........................................          X",
"X        ............................................          X",
"X        ............................................          X",
"X       ............................................           X",
"X       ............................................           X",
"X       ...........                     ..........             X",
"X      ...........                                             X",
"X      ...........                                             X",
"X      ...........                                             X",
"X      ..........                                              X",
"X      ..........                                              X",
"X      ...........                                             X",
"X      ............                                            X",
"X      .............                                           X",
"X      .......................                                 X",
"X       ............................                           X",
"X       ..................................                     X",
"X        ....................................                  X",
"X        ......................................                X",
"X         .......................................              X",
"X          .......................................             X",
"X           ......................................             X",
"X             .....................................            X",
"X               ...................................            X",
"X                         ..........................           X",
"X                                ...................           X",
"X                                     ..............           X",
"X                                        ...........           X",
"X                                         ...........          X",
"X                                         ...........          X",
"X                                         ...........          X",
"X                                         ...........          X",
"X                                         ...........          X",
"X                                         ...........          X",
"X                                        ............          X",
"X                                        ...........           X",
"X                                       ............           X",
"X                                     ..............           X",
"X                                   ...............            X",
"X         .........................................            X",
"X       ..........................................             X",
"X       ..........................................             X",
"X      ..........................................              X",
"X      ..........................................              X",
"X      ........................................                X",
"X      .......................................                 X",
"X       ....................................                   X",
"X       ..................................                     X",
"X         ..............................                       X",
"X                                                              X",
"X                                                              X",
"X                                                              X",
"X                                                              X",
"XXXXXXXXXXXXXXXXXXXXXXXXXXXXXXXXXXXXXXXXXXXXXXXXXXXXXXXXXXXXXXXX"
};
